# xmcd
#
# Track frame offsets:
#	150
#	9923
#	29406
#	47384
#	62092
#	72147
#	87995
#	102668
#	120987
#	138399
#	144028
#
# Disc length: 2185 seconds
#
# Revision: 0
# Processed by: cddbd v1.5.1PL2 Copyright (c) Steve Scherf et al.
# Submitted via: EasyCDDAExtractor 8.1.2.3
#
DISCID=8808870b
DTITLE=Various Artist - Crise des banlieues
DYEAR=2006
DGENRE=Rap
TTITLE0=VA - Intro (Crise Des Banlieues)
TTITLE1=Alibi Montana - Crise Des Banlieues
TTITLE2=Poison Feat. Lony - Ma Cité à Cracker
TTITLE3=Moubaraka - Message Authentique
TTITLE4=Avok, 8teen, Meh, Lorca, Endo, - Departements Dangereux
TTITLE5=RS4 - Ma Banlieue En Crise
TTITLE6=Giz - On Veut Notre Part
TTITLE7=B. Slio - Choquer La France
TTITLE8=Suzax, RR, ST4 - Agressif
TTITLE9=Tony - Faut Etre Dur
TTITLE10=Bad Boss Feat. Ghetto - Les Désérités
EXTD=
EXTT0=
EXTT1=
EXTT2=
EXTT3=
EXTT4=
EXTT5=
EXTT6=
EXTT7=
EXTT8=
EXTT9=
EXTT10=
PLAYORDER=
